<svg height="50" viewBox="0 0 120 60.000001" width="110" xmlns="http://www.w3.org/2000/svg"><g transform="translate(4.010289)"><path d="m28.872309 13.596019c-1.592995-2.427422-1.972279-2.749814-5.215162-2.749814-.01896 0-.01896 0-.03793 0s-.01897 0-.03793 0c-3.242883 0-3.603203.322392-5.215163 2.749814-1.498171 2.275706-16.366124 29.508336-16.366124 30.266904 0 1.099926.2844634 2.142957 1.3085316 3.622167 1.0430325 1.498174 2.8446339 2.332599 4.1531656 1.005105.8913186-.89132 10.4303248-17.333303 15.0386318-23.55357.549962-.777532 1.687816-.777532 2.256742 0 4.608308 6.220267 14.147314 22.66225 15.038632 23.55357 1.308532 1.327494 3.110133.493069 4.153167-1.005105 1.024067-1.47921 1.30853-2.522241 1.30853-3.622167-.018964-.758568-14.886917-28.010162-16.385091-30.266904z" fill="#1173b6" stroke-width=".189642"/><g fill="#585d67" transform="matrix(.10241046 0 0 .10241046 17.717838 19.024595)"><path d="m320.8 2h115.9v28.8h-81.8v49.1h69.1v28.9h-69.1v56.8h84.7v28.8h-118.8z"/><path d="m501.3 118.9-39.7-63.9 36.8-5s24.5 48.4 26.4 51.8l28.9-51.8h35l-39.4 68.9c-1.1 1.9-1 4.2.1 6l42.6 65.5-37.3 4-29.8-54.1c-2.2 4.1-30.9 54.1-30.9 54.1h-38.2l45.4-69.3c1.2-1.9 1.3-4.3.1-6.2z"/><path d="m645.5 206.1v40.3l-33.8 5v-201.5h27.9l2.4 15.3h1.2c6.1-5.1 12.8-9.5 20.3-13.2s15.2-5.6 23.2-5.6c9 0 17 1.7 24 5.1s12.9 8.4 17.8 14.9 8.6 14.2 11.2 23.2c2.5 9 3.8 19.1 3.8 30.3 0 12.4-1.7 23.4-5.1 33.1s-8 17.8-13.7 24.4-12.3 11.6-19.7 15.1c-7.5 3.5-15.2 5.3-23.2 5.3-6.3 0-12.5-1.4-18.8-4.1s-12.4-6.7-18.2-11.8zm0-48.2c5.3 4.5 10.4 7.7 15.3 9.4 4.9 1.8 9.5 2.6 13.8 2.6 9.6 0 17.6-4.2 24.1-12.5s9.7-20.7 9.7-37.2c0-14.5-2.5-25.8-7.4-33.8s-12.8-12.1-23.8-12.1c-10.2 0-20.8 5.4-31.8 16.2v67.4z"/><path d="m763.7 122.3c0-12 1.9-22.6 5.6-32.1 3.7-9.4 8.8-17.4 15.1-23.8 6.4-6.5 13.7-11.4 21.9-14.9 8.2-3.4 16.9-5.1 25.9-5.1s17.7 1.7 26 5.1 15.6 8.4 21.9 14.9 11.3 14.4 15.1 23.8 5.7 20.1 5.7 32.1-1.9 22.6-5.7 32.1c-3.8 9.4-8.9 17.4-15.1 23.8-6.3 6.5-13.6 11.4-21.9 14.7s-17 5-26 5-17.6-1.7-25.9-5-15.5-8.2-21.9-14.7-11.4-14.4-15.1-23.8c-3.7-9.5-5.6-20.1-5.6-32.1zm34.7 0c0 14.5 3 26.1 9 34.9 6 8.7 14.3 13.1 24.9 13.1s18.9-4.4 25-13.1 9.1-20.3 9.1-34.9c0-14.7-3-26.4-9.1-35.1s-14.4-13.1-25-13.1-18.9 4.4-24.9 13.1-9 20.4-9 35.1z"/></g></g></svg>