<svg height="100px" width="100px" xmlns="http://www.w3.org/2000/svg" data-name="Layer 1" viewBox="0 0 512 512"><rect width="360.73" height="497" x="75.64" y="7.5" fill="#fff8cc" rx="30"/><path fill="#f66" d="M233.52,223.77H142.14a21.5,21.5,0,0,1-21.5-21.51v-5.63a39.88,39.88,0,0,1,32.43-39.19l34.76-6.63,34.76,6.63A39.88,39.88,0,0,1,255,196.63v5.63A21.5,21.5,0,0,1,233.52,223.77Z"/><path fill="#ff4e4e" d="M222.59,157.44l-34.76-6.63-9.16,1.75,25.61,4.88a39.88,39.88,0,0,1,32.43,39.19v5.63a21.51,21.51,0,0,1-21.5,21.51h18.31A21.5,21.5,0,0,0,255,202.26v-5.63A39.88,39.88,0,0,0,222.59,157.44Z"/><path fill="#ffcd85" d="M173.11,144.66h29.44a0,0,0,0,1,0,0v14.72a14.72,14.72,0,0,1-14.72,14.72h0a14.72,14.72,0,0,1-14.72-14.72V144.66A0,0,0,0,1,173.11,144.66Z"/><path fill="#ffcd85" d="M173.11,144.66h29.44a0,0,0,0,1,0,0v14.72a14.72,14.72,0,0,1-14.72,14.72h0a14.72,14.72,0,0,1-14.72-14.72V144.66A0,0,0,0,1,173.11,144.66Z"/><path fill="#ffc166" d="M190.77,144.66v14.71a14.72,14.72,0,0,1-8.83,13.49,14.61,14.61,0,0,0,5.89,1.23h0a14.72,14.72,0,0,0,14.72-14.72V144.66Z"/><path fill="#595f74" d="M211.86,80,152.63,91.16V63.67c0-6.17,5-12.77,11.17-12.77H223V68.83A11.17,11.17,0,0,1,211.86,80Z"/><path fill="#4a4f60" d="M208,50.9V68.83A11.17,11.17,0,0,1,196.86,80l-44.23,8.33v2.83L211.86,80A11.17,11.17,0,0,0,223,68.83V50.9Z"/><path fill="#ffcd85" d="M165.43,80h44.8A12.8,12.8,0,0,1,223,92.79v22.4a35.2,35.2,0,0,1-35.2,35.2h0a35.2,35.2,0,0,1-35.2-35.2V92.79A12.8,12.8,0,0,1,165.43,80Z"/><path fill="#ffc166" d="M210.23,80h-15A12.8,12.8,0,0,1,208,92.79v22.4a35.21,35.21,0,0,1-27.7,34.39,35.68,35.68,0,0,0,7.5.81h0a35.2,35.2,0,0,0,35.2-35.2V92.79A12.8,12.8,0,0,0,210.23,80Z"/><path fill="#ffed80" d="M391.36 60H291.7a7.5 7.5 0 0 1 0-15h99.66a7.5 7.5 0 0 1 0 15zM391.36 231.27H291.7a7.5 7.5 0 0 1 0-15h99.66a7.5 7.5 0 0 1 0 15zM391.36 201.27H291.7a7.5 7.5 0 0 1 0-15h99.66a7.5 7.5 0 0 1 0 15zM391.36 278.5H167.72a7.5 7.5 0 0 1 0-15H391.36a7.5 7.5 0 0 1 0 15zM346.36 90H291.7a7.5 7.5 0 0 1 0-15h54.66a7.5 7.5 0 0 1 0 15z"/><circle cx="128.14" cy="271" r="7.5" fill="#ffed80"/><path fill="#ffed80" d="M391.36,323.5H167.72a7.5,7.5,0,0,1,0-15H391.36a7.5,7.5,0,0,1,0,15Z"/><circle cx="128.14" cy="316" r="7.5" fill="#ffed80"/><path fill="#ffed80" d="M391.36,368.5H167.72a7.5,7.5,0,0,1,0-15H391.36a7.5,7.5,0,0,1,0,15Z"/><circle cx="128.14" cy="361" r="7.5" fill="#ffed80"/><path fill="#ffed80" d="M391.36,413.5H167.72a7.5,7.5,0,0,1,0-15H391.36a7.5,7.5,0,0,1,0,15Z"/><circle cx="128.14" cy="406" r="7.5" fill="#ffed80"/><path fill="#ffed80" d="M391.36,458.5H167.72a7.5,7.5,0,0,1,0-15H391.36a7.5,7.5,0,0,1,0,15Z"/><circle cx="128.14" cy="451" r="7.5" fill="#ffed80"/></svg>